<svg width="22" height="22" viewBox="0 0 22 22" fill="none" xmlns="http://www.w3.org/2000/svg">
<path d="M5.01111 17.2028H6.84444V8.8H5.01111V17.2028ZM10.0833 17.2028H11.9167V4.79722H10.0833V17.2028ZM15.1556 17.2028H16.9889V12.6806H15.1556V17.2028ZM1.83333 22C1.34444 22 0.916667 21.8167 0.55 21.45C0.183333 21.0833 0 20.6556 0 20.1667V1.83333C0 1.34444 0.183333 0.916667 0.55 0.55C0.916667 0.183333 1.34444 0 1.83333 0H20.1667C20.6556 0 21.0833 0.183333 21.45 0.55C21.8167 0.916667 22 1.34444 22 1.83333V20.1667C22 20.6556 21.8167 21.0833 21.45 21.45C21.0833 21.8167 20.6556 22 20.1667 22H1.83333ZM1.83333 20.1667H20.1667V1.83333H1.83333V20.1667ZM1.83333 20.1667V1.83333V20.1667Z" fill="#ACAEAE"/>
</svg>
