<svg width="40" height="40" viewBox="0 0 40 40" fill="none" xmlns="http://www.w3.org/2000/svg">
<rect width="40" height="40" rx="10" fill="#36393A"/>
<path d="M8 29V26.2754C8 25.599 8.1629 24.9855 8.48869 24.4348C8.81448 23.8841 9.26697 23.4734 9.84615 23.2029C11.1674 22.5845 12.3575 22.1401 13.4163 21.8696C14.4751 21.599 15.5656 21.4638 16.6878 21.4638C17.81 21.4638 18.8959 21.599 19.9457 21.8696C20.9955 22.1401 22.181 22.5845 23.5023 23.2029C24.0814 23.4734 24.5385 23.8841 24.8733 24.4348C25.2081 24.9855 25.3756 25.599 25.3756 26.2754V29H8ZM23.8552 21.3768C25.1041 21.5314 26.2805 21.7585 27.3846 22.058C28.4887 22.3575 29.3846 22.7005 30.0724 23.087C30.6697 23.4541 31.1403 23.9082 31.4842 24.4493C31.8281 24.9903 32 25.599 32 26.2754V29H27.0045V26.2754C27.0045 25.058 26.7149 24.058 26.1357 23.2754C25.5566 22.4928 24.7964 21.8599 23.8552 21.3768ZM16.6878 19.6957C15.4932 19.6957 14.5158 19.2899 13.7557 18.4783C12.9955 17.6667 12.6154 16.6232 12.6154 15.3478C12.6154 14.0725 12.9955 13.029 13.7557 12.2174C14.5158 11.4058 15.4932 11 16.6878 11C17.8824 11 18.8597 11.4058 19.6199 12.2174C20.3801 13.029 20.7602 14.0725 20.7602 15.3478C20.7602 16.6232 20.3801 17.6667 19.6199 18.4783C18.8597 19.2899 17.8824 19.6957 16.6878 19.6957ZM26.4615 15.3478C26.4615 16.6232 26.0814 17.6667 25.3213 18.4783C24.5611 19.2899 23.5837 19.6957 22.3891 19.6957C22.19 19.6957 21.9683 19.6812 21.724 19.6522C21.4796 19.6232 21.2579 19.57 21.0588 19.4928C21.4932 19.0097 21.8235 18.4155 22.0498 17.7101C22.276 17.0048 22.3891 16.2174 22.3891 15.3478C22.3891 14.4783 22.276 13.7101 22.0498 13.0435C21.8235 12.3768 21.4932 11.7633 21.0588 11.2029C21.2579 11.1449 21.4796 11.0966 21.724 11.058C21.9683 11.0193 22.19 11 22.3891 11C23.5837 11 24.5611 11.4058 25.3213 12.2174C26.0814 13.029 26.4615 14.0725 26.4615 15.3478ZM9.62896 27.2609H23.7466V26.2754C23.7466 25.9662 23.6606 25.6667 23.4887 25.3768C23.3167 25.087 23.1041 24.8841 22.8507 24.7681C21.5475 24.1498 20.4525 23.7343 19.5656 23.5217C18.6787 23.3092 17.7195 23.2029 16.6878 23.2029C15.6561 23.2029 14.6923 23.3092 13.7964 23.5217C12.9005 23.7343 11.8009 24.1498 10.4977 24.7681C10.2443 24.8841 10.0362 25.087 9.8733 25.3768C9.71041 25.6667 9.62896 25.9662 9.62896 26.2754V27.2609ZM16.6878 17.9565C17.3937 17.9565 17.9774 17.7101 18.4389 17.2174C18.9005 16.7246 19.1312 16.1014 19.1312 15.3478C19.1312 14.5942 18.9005 13.971 18.4389 13.4783C17.9774 12.9855 17.3937 12.7391 16.6878 12.7391C15.9819 12.7391 15.3982 12.9855 14.9367 13.4783C14.4751 13.971 14.2443 14.5942 14.2443 15.3478C14.2443 16.1014 14.4751 16.7246 14.9367 17.2174C15.3982 17.7101 15.9819 17.9565 16.6878 17.9565Z" fill="#5A6063"/>
</svg>
