<svg width="146" height="25" viewBox="0 0 146 25" fill="none" xmlns="http://www.w3.org/2000/svg">
<path d="M8.812 24.32C7.276 24.32 5.9 23.9467 4.684 23.2C3.48933 22.432 2.54 21.3973 1.836 20.096C1.132 18.7733 0.78 17.2693 0.78 15.584C0.78 13.8987 1.12133 12.4053 1.804 11.104C2.508 9.78133 3.45733 8.74667 4.652 8C5.84667 7.232 7.20133 6.848 8.716 6.848C9.548 6.848 10.348 6.98667 11.116 7.264C11.9053 7.52 12.6093 7.88267 13.228 8.352C13.8467 8.8 14.3267 9.30133 14.668 9.856C15.0307 10.3893 15.212 10.9333 15.212 11.488L14.252 11.552V0.32H17.548V24H14.252V20H14.892C14.892 20.512 14.7213 21.024 14.38 21.536C14.0387 22.0267 13.58 22.4853 13.004 22.912C12.4493 23.3387 11.7987 23.68 11.052 23.936C10.3267 24.192 9.58 24.32 8.812 24.32ZM9.26 21.472C10.2627 21.472 11.148 21.216 11.916 20.704C12.684 20.192 13.2813 19.4987 13.708 18.624C14.156 17.728 14.38 16.7147 14.38 15.584C14.38 14.4533 14.156 13.4507 13.708 12.576C13.2813 11.68 12.684 10.976 11.916 10.464C11.148 9.952 10.2627 9.696 9.26 9.696C8.25733 9.696 7.372 9.952 6.604 10.464C5.836 10.976 5.228 11.68 4.78 12.576C4.35333 13.4507 4.14 14.4533 4.14 15.584C4.14 16.7147 4.35333 17.728 4.78 18.624C5.228 19.4987 5.836 20.192 6.604 20.704C7.372 21.216 8.25733 21.472 9.26 21.472ZM29.9253 24.32C28.1973 24.32 26.6613 23.9573 25.3173 23.232C23.9946 22.4853 22.9493 21.472 22.1813 20.192C21.4346 18.912 21.0613 17.44 21.0613 15.776C21.0613 14.4533 21.2746 13.248 21.7013 12.16C22.1279 11.072 22.7146 10.1333 23.4613 9.344C24.2293 8.53333 25.1359 7.91467 26.1813 7.488C27.2479 7.04 28.3999 6.816 29.6373 6.816C30.7253 6.816 31.7386 7.02933 32.6773 7.456C33.6159 7.86133 34.4266 8.42667 35.1093 9.152C35.8133 9.87733 36.3466 10.7413 36.7093 11.744C37.0933 12.7253 37.2746 13.8027 37.2533 14.976L37.2213 16.384H23.4933L22.7573 13.76H34.3733L33.8933 14.304V13.536C33.8293 12.832 33.5946 12.2027 33.1893 11.648C32.7839 11.0933 32.2719 10.656 31.6533 10.336C31.0346 10.016 30.3626 9.856 29.6373 9.856C28.4853 9.856 27.5146 10.08 26.7253 10.528C25.9359 10.9547 25.3386 11.5947 24.9333 12.448C24.5279 13.28 24.3253 14.3147 24.3253 15.552C24.3253 16.7253 24.5706 17.7493 25.0613 18.624C25.5519 19.4773 26.2453 20.1387 27.1413 20.608C28.0373 21.0773 29.0719 21.312 30.2453 21.312C31.0773 21.312 31.8453 21.1733 32.5493 20.896C33.2746 20.6187 34.0533 20.1173 34.8853 19.392L36.5493 21.728C36.0373 22.24 35.4079 22.688 34.6613 23.072C33.9359 23.456 33.1573 23.7653 32.3253 24C31.5146 24.2133 30.7146 24.32 29.9253 24.32ZM46.0268 24L38.9228 7.2H42.4748L47.5948 19.776L46.9868 20.064L52.4588 7.2H55.8507L48.3948 24H46.0268Z" fill="#5A6063"/>
<path d="M69.7145 24.32C68.0932 24.32 66.5785 24.032 65.1705 23.456C63.7625 22.8587 62.5252 22.0373 61.4585 20.992C60.3918 19.9467 59.5598 18.7307 58.9625 17.344C58.3865 15.936 58.0985 14.4213 58.0985 12.8C58.0985 11.2 58.3865 9.70667 58.9625 8.32C59.5598 6.93333 60.3812 5.728 61.4265 4.704C62.4932 3.65867 63.7305 2.848 65.1385 2.272C66.5465 1.696 68.0612 1.408 69.6825 1.408C70.8132 1.408 71.9118 1.568 72.9785 1.888C74.0665 2.208 75.0478 2.656 75.9225 3.232C76.7972 3.808 77.5118 4.46933 78.0665 5.216L75.8265 7.552C75.1865 6.93333 74.5252 6.42133 73.8425 6.016C73.1812 5.61067 72.4985 5.30133 71.7945 5.088C71.0905 4.87467 70.3865 4.768 69.6825 4.768C68.5305 4.768 67.4638 4.97067 66.4825 5.376C65.5225 5.78133 64.6692 6.34667 63.9225 7.072C63.1972 7.79733 62.6318 8.65067 62.2265 9.632C61.8212 10.592 61.6185 11.648 61.6185 12.8C61.6185 13.9093 61.8318 14.9653 62.2585 15.968C62.6852 16.9493 63.2718 17.8133 64.0185 18.56C64.7865 19.3067 65.6612 19.8933 66.6425 20.32C67.6452 20.7467 68.7012 20.96 69.8105 20.96C70.6425 20.96 71.4318 20.8427 72.1785 20.608C72.9252 20.352 73.5865 20 74.1625 19.552C74.7385 19.104 75.1865 18.592 75.5065 18.016C75.8265 17.4187 75.9865 16.7893 75.9865 16.128V15.488L76.4665 15.936H69.6185V12.512H79.5385C79.5812 12.7467 79.6132 12.9813 79.6345 13.216C79.6558 13.4293 79.6665 13.6427 79.6665 13.856C79.6878 14.048 79.6985 14.24 79.6985 14.432C79.6985 15.904 79.4425 17.248 78.9305 18.464C78.4185 19.6587 77.7038 20.6933 76.7865 21.568C75.8905 22.4427 74.8345 23.1253 73.6185 23.616C72.4238 24.0853 71.1225 24.32 69.7145 24.32ZM89.8305 24.32C88.4438 24.32 87.1745 23.936 86.0225 23.168C84.8918 22.4 83.9852 21.3547 83.3025 20.032C82.6198 18.7093 82.2785 17.216 82.2785 15.552C82.2785 13.8667 82.6198 12.3733 83.3025 11.072C84.0065 9.74933 84.9452 8.71467 86.1185 7.968C87.3132 7.22133 88.6465 6.848 90.1185 6.848C90.9932 6.848 91.7932 6.976 92.5185 7.232C93.2438 7.488 93.8732 7.85067 94.4065 8.32C94.9612 8.768 95.4092 9.29067 95.7505 9.888C96.1132 10.4853 96.3372 11.1253 96.4225 11.808L95.6865 11.552V7.2H99.0145V24H95.6865V20L96.4545 19.776C96.3265 20.352 96.0598 20.9173 95.6545 21.472C95.2705 22.0053 94.7692 22.4853 94.1505 22.912C93.5532 23.3387 92.8812 23.68 92.1345 23.936C91.4092 24.192 90.6412 24.32 89.8305 24.32ZM90.6945 21.28C91.6972 21.28 92.5825 21.0347 93.3505 20.544C94.1185 20.0533 94.7158 19.3813 95.1425 18.528C95.5905 17.6533 95.8145 16.6613 95.8145 15.552C95.8145 14.464 95.5905 13.4933 95.1425 12.64C94.7158 11.7867 94.1185 11.1147 93.3505 10.624C92.5825 10.1333 91.6972 9.888 90.6945 9.888C89.7132 9.888 88.8385 10.1333 88.0705 10.624C87.3238 11.1147 86.7265 11.7867 86.2785 12.64C85.8518 13.4933 85.6385 14.464 85.6385 15.552C85.6385 16.6613 85.8518 17.6533 86.2785 18.528C86.7265 19.3813 87.3238 20.0533 88.0705 20.544C88.8385 21.0347 89.7132 21.28 90.6945 21.28ZM105.697 24V2.912H108.993V24H105.697ZM102.209 10.4V7.2H112.897V10.4H102.209ZM123.294 24.32C121.651 24.32 120.179 23.9467 118.878 23.2C117.598 22.432 116.584 21.3973 115.838 20.096C115.091 18.7733 114.718 17.2693 114.718 15.584C114.718 13.8987 115.091 12.4053 115.838 11.104C116.584 9.78133 117.598 8.74667 118.878 8C120.179 7.232 121.651 6.848 123.294 6.848C124.915 6.848 126.366 7.232 127.646 8C128.947 8.74667 129.971 9.78133 130.718 11.104C131.464 12.4053 131.838 13.8987 131.838 15.584C131.838 17.2693 131.464 18.7733 130.718 20.096C129.971 21.3973 128.947 22.432 127.646 23.2C126.366 23.9467 124.915 24.32 123.294 24.32ZM123.294 21.312C124.296 21.312 125.192 21.0667 125.982 20.576C126.771 20.064 127.39 19.3813 127.838 18.528C128.286 17.6533 128.499 16.672 128.478 15.584C128.499 14.4747 128.286 13.4933 127.838 12.64C127.39 11.7653 126.771 11.0827 125.982 10.592C125.192 10.1013 124.296 9.856 123.294 9.856C122.291 9.856 121.384 10.112 120.574 10.624C119.784 11.1147 119.166 11.7973 118.718 12.672C118.27 13.5253 118.056 14.496 118.078 15.584C118.056 16.672 118.27 17.6533 118.718 18.528C119.166 19.3813 119.784 20.064 120.574 20.576C121.384 21.0667 122.291 21.312 123.294 21.312ZM135.429 24V7.2H138.757V12.48L138.437 11.2C138.672 10.3893 139.066 9.65333 139.621 8.992C140.197 8.33067 140.848 7.808 141.573 7.424C142.32 7.04 143.088 6.848 143.877 6.848C144.24 6.848 144.581 6.88 144.901 6.944C145.242 7.008 145.509 7.08267 145.701 7.168L144.837 10.752C144.581 10.6453 144.293 10.56 143.973 10.496C143.674 10.4107 143.376 10.368 143.077 10.368C142.501 10.368 141.946 10.4853 141.413 10.72C140.901 10.9333 140.442 11.2427 140.037 11.648C139.653 12.032 139.344 12.4907 139.109 13.024C138.874 13.536 138.757 14.1013 138.757 14.72V24H135.429Z" fill="#7C8C94"/>
</svg>
