<svg width="16" height="3" viewBox="0 0 16 3" fill="none" xmlns="http://www.w3.org/2000/svg">
<g clip-path="url(#clip0_32_32)">
<path d="M0.965668 2.66523C0.79734 2.66523 0.646545 2.62432 0.513285 2.54249C0.382362 2.45833 0.278326 2.34494 0.201175 2.20233C0.124025 2.05737 0.0854492 1.89255 0.0854492 1.70786C0.0854492 1.52317 0.122855 1.35951 0.197668 1.2169C0.274819 1.07195 0.378855 0.958566 0.509778 0.876739C0.640701 0.792575 0.789157 0.750492 0.955148 0.750492C1.04633 0.750492 1.134 0.765689 1.21816 0.796081C1.30466 0.824136 1.38181 0.863881 1.44961 0.915314C1.51742 0.96441 1.57002 1.01935 1.60742 1.08014C1.64717 1.13858 1.66704 1.1982 1.66704 1.25899L1.56183 1.266V0.0350952H1.92304V2.63016H1.56183V2.19181H1.63197C1.63197 2.24792 1.61326 2.30403 1.57586 2.36014C1.53846 2.41391 1.48819 2.46417 1.42507 2.51093C1.36428 2.55769 1.29298 2.5951 1.21115 2.62315C1.13166 2.6512 1.04983 2.66523 0.965668 2.66523ZM1.01476 2.35312C1.12465 2.35312 1.22167 2.32507 1.30583 2.26896C1.39 2.21285 1.45545 2.13687 1.50222 2.04101C1.55131 1.94282 1.57586 1.83177 1.57586 1.70786C1.57586 1.58395 1.55131 1.47408 1.50222 1.37822C1.45545 1.28003 1.39 1.20288 1.30583 1.14677C1.22167 1.09066 1.12465 1.0626 1.01476 1.0626C0.904883 1.0626 0.80786 1.09066 0.723696 1.14677C0.639531 1.20288 0.572901 1.28003 0.523805 1.37822C0.477047 1.47408 0.453668 1.58395 0.453668 1.70786C0.453668 1.83177 0.477047 1.94282 0.523805 2.04101C0.572901 2.13687 0.639531 2.21285 0.723696 2.26896C0.80786 2.32507 0.904883 2.35312 1.01476 2.35312ZM3.27945 2.66523C3.09008 2.66523 2.92176 2.62548 2.77447 2.546C2.62951 2.46417 2.51496 2.35312 2.4308 2.21285C2.34897 2.07257 2.30806 1.91126 2.30806 1.7289C2.30806 1.58395 2.33143 1.45186 2.37819 1.33263C2.42494 1.2134 2.48924 1.11053 2.57107 1.02403C2.65524 0.935186 2.75459 0.867388 2.86915 0.820629C2.98604 0.771534 3.11229 0.746986 3.24789 0.746986C3.36713 0.746986 3.47817 0.770364 3.58104 0.817123C3.6839 0.861542 3.77275 0.923497 3.84756 1.00299C3.92471 1.08247 3.98316 1.17716 4.02291 1.28704C4.06499 1.39458 4.08486 1.51265 4.08252 1.64123L4.07902 1.79553H2.57458L2.49392 1.50797H3.76691L3.7143 1.56759V1.48342C3.70729 1.40627 3.68157 1.33731 3.63715 1.27652C3.59273 1.21573 3.53662 1.16781 3.46882 1.13274C3.40102 1.09767 3.32738 1.08014 3.24789 1.08014C3.12165 1.08014 3.01527 1.10468 2.92877 1.15378C2.84226 1.20054 2.7768 1.27068 2.73239 1.36419C2.68796 1.45537 2.66576 1.56876 2.66576 1.70436C2.66576 1.83294 2.69264 1.94516 2.74641 2.04101C2.80018 2.13453 2.87617 2.20701 2.97436 2.25844C3.07255 2.30987 3.18593 2.33559 3.31452 2.33559C3.4057 2.33559 3.48987 2.32039 3.56702 2.29C3.6465 2.25961 3.73184 2.20466 3.82302 2.12518L4.00537 2.38118C3.94926 2.43729 3.88029 2.48638 3.79847 2.52847C3.71897 2.57055 3.63365 2.60444 3.54247 2.63016C3.45362 2.65354 3.36595 2.66523 3.27945 2.66523ZM5.044 2.63016L4.26548 0.789068H4.65474L5.21584 2.16726L5.14921 2.19882L5.74888 0.789068H6.12059L5.30351 2.63016H5.044Z" fill="#ffffff"/>
<path d="M7.63993 2.6652C7.46225 2.6652 7.29626 2.63364 7.14196 2.57052C6.98766 2.50506 6.85206 2.41504 6.73516 2.30049C6.61826 2.18594 6.52709 2.05268 6.46163 1.90071C6.39851 1.74641 6.36694 1.58041 6.36694 1.40274C6.36694 1.22739 6.39851 1.06374 6.46163 0.911776C6.52709 0.759812 6.6171 0.627722 6.73166 0.515502C6.84855 0.400946 6.98415 0.312105 7.13845 0.248982C7.29275 0.185859 7.45875 0.154297 7.63642 0.154297C7.76034 0.154297 7.88073 0.171831 7.99763 0.2069C8.11686 0.241968 8.2244 0.291064 8.32026 0.354187C8.41612 0.417311 8.49443 0.489785 8.55522 0.571612L8.30974 0.827612C8.2396 0.759813 8.16713 0.703703 8.09231 0.659283C8.01984 0.614863 7.94503 0.580963 7.86788 0.557585C7.79072 0.534206 7.71357 0.522516 7.63642 0.522516C7.51018 0.522516 7.39328 0.544726 7.28574 0.589146C7.18053 0.633566 7.08702 0.695521 7.00519 0.775009C6.92571 0.854497 6.86374 0.948014 6.81933 1.05556C6.77491 1.16076 6.7527 1.27649 6.7527 1.40274C6.7527 1.5243 6.77607 1.64003 6.82283 1.74991C6.8696 1.85745 6.93388 1.95214 7.01571 2.03397C7.09988 2.1158 7.19573 2.18008 7.30327 2.22684C7.41316 2.27361 7.52888 2.29698 7.65045 2.29698C7.74163 2.29698 7.82813 2.28413 7.90996 2.25841C7.99179 2.23035 8.06426 2.19178 8.12738 2.14268C8.1905 2.09358 8.2396 2.03748 8.27467 1.97435C8.30974 1.90889 8.32727 1.83992 8.32727 1.76745V1.69731L8.37987 1.74641H7.62941V1.37117H8.71653C8.72121 1.39689 8.72472 1.4226 8.72705 1.44832C8.72939 1.4717 8.73056 1.49509 8.73056 1.51846C8.73289 1.5395 8.73407 1.56054 8.73407 1.58158C8.73407 1.7429 8.70601 1.89019 8.6499 2.02345C8.59379 2.15437 8.51547 2.26775 8.41494 2.36361C8.31675 2.45947 8.20103 2.53428 8.06777 2.58805C7.93684 2.63948 7.79423 2.6652 7.63993 2.6652ZM9.84442 2.6652C9.69246 2.6652 9.55335 2.62312 9.42711 2.53895C9.3032 2.45479 9.20384 2.34024 9.12903 2.19528C9.05421 2.05033 9.01681 1.88668 9.01681 1.70432C9.01681 1.51963 9.05421 1.35597 9.12903 1.21337C9.20618 1.06842 9.30905 0.955028 9.43763 0.873201C9.56855 0.791374 9.71467 0.750461 9.87598 0.750461C9.97184 0.750461 10.0595 0.764489 10.139 0.792543C10.2185 0.820598 10.2875 0.860343 10.3459 0.911776C10.4067 0.960872 10.4558 1.01815 10.4932 1.08361C10.5329 1.14907 10.5575 1.21921 10.5668 1.29402L10.4862 1.26597V0.789037H10.8509V2.63013H10.4862V2.19178L10.5703 2.16723C10.5563 2.23035 10.5271 2.2923 10.4827 2.35309C10.4406 2.41154 10.3856 2.46414 10.3178 2.5109C10.2524 2.55766 10.1787 2.59506 10.0969 2.62312C10.0174 2.65117 9.93327 2.6652 9.84442 2.6652ZM9.93911 2.33205C10.049 2.33205 10.146 2.30517 10.2302 2.25139C10.3143 2.19762 10.3798 2.12397 10.4266 2.03046C10.4757 1.9346 10.5002 1.82589 10.5002 1.70432C10.5002 1.58509 10.4757 1.47871 10.4266 1.3852C10.3798 1.29169 10.3143 1.21804 10.2302 1.16427C10.146 1.11049 10.049 1.08361 9.93911 1.08361C9.83157 1.08361 9.73571 1.11049 9.65155 1.16427C9.56972 1.21804 9.50426 1.29169 9.45516 1.3852C9.4084 1.47871 9.38503 1.58509 9.38503 1.70432C9.38503 1.82589 9.4084 1.9346 9.45516 2.03046C9.50426 2.12397 9.56972 2.19762 9.65155 2.25139C9.73571 2.30517 9.83157 2.33205 9.93911 2.33205ZM11.5832 2.63013V0.319119H11.9444V2.63013H11.5832ZM11.201 1.13972V0.789037H12.3723V1.13972H11.201ZM13.5117 2.6652C13.3316 2.6652 13.1703 2.62429 13.0277 2.54246C12.8874 2.4583 12.7763 2.34491 12.6946 2.2023C12.6127 2.05734 12.5718 1.89252 12.5718 1.70783C12.5718 1.52314 12.6127 1.35948 12.6946 1.21687C12.7763 1.07192 12.8874 0.958535 13.0277 0.876708C13.1703 0.792543 13.3316 0.750461 13.5117 0.750461C13.6893 0.750461 13.8483 0.792543 13.9886 0.876708C14.1312 0.958535 14.2434 1.07192 14.3252 1.21687C14.407 1.35948 14.448 1.52314 14.448 1.70783C14.448 1.89252 14.407 2.05734 14.3252 2.2023C14.2434 2.34491 14.1312 2.4583 13.9886 2.54246C13.8483 2.62429 13.6893 2.6652 13.5117 2.6652ZM13.5117 2.33556C13.6215 2.33556 13.7197 2.30868 13.8062 2.2549C13.8927 2.19879 13.9605 2.12397 14.0096 2.03046C14.0587 1.9346 14.0821 1.82706 14.0798 1.70783C14.0821 1.58626 14.0587 1.47871 14.0096 1.3852C13.9605 1.28934 13.8927 1.21454 13.8062 1.16076C13.7197 1.10699 13.6215 1.08011 13.5117 1.08011C13.4017 1.08011 13.3023 1.10816 13.2136 1.16427C13.127 1.21804 13.0593 1.29285 13.0102 1.38871C12.9611 1.48222 12.9376 1.5886 12.94 1.70783C12.9376 1.82706 12.9611 1.9346 13.0102 2.03046C13.0593 2.12397 13.127 2.19879 13.2136 2.2549C13.3023 2.30868 13.4017 2.33556 13.5117 2.33556ZM14.8415 2.63013V0.789037H15.2062V1.36767L15.1712 1.22739C15.1969 1.13855 15.2401 1.05789 15.3009 0.98542C15.364 0.912946 15.4354 0.855667 15.5148 0.813585C15.5967 0.771502 15.6809 0.750461 15.7673 0.750461C15.8071 0.750461 15.8445 0.753968 15.8795 0.760982C15.9169 0.767996 15.9462 0.776179 15.9672 0.78553L15.8725 1.1783C15.8445 1.1666 15.8129 1.15726 15.7778 1.15024C15.7451 1.14089 15.7124 1.13621 15.6797 1.13621C15.6165 1.13621 15.5557 1.14907 15.4973 1.17479C15.4412 1.19817 15.3909 1.23207 15.3465 1.27649C15.3044 1.31857 15.2706 1.36884 15.2448 1.42728C15.2191 1.48339 15.2062 1.54534 15.2062 1.61315V2.63013H14.8415Z" fill="#2B5EC2"/>
</g>
<defs>
<clipPath id="clip0_32_32">
<rect width="16" height="2.73973" fill="white"/>
</clipPath>
</defs>
</svg>
