<svg width="160" height="160" viewBox="0 0 160 160" fill="none" xmlns="http://www.w3.org/2000/svg">
<path d="M160 80C160 124.183 124.183 160 80 160C35.8172 160 0 124.183 0 80C0 35.8172 35.8172 0 80 0C124.183 0 160 35.8172 160 80ZM32 80C32 106.51 53.4903 128 80 128C106.51 128 128 106.51 128 80C128 53.4903 106.51 32 80 32C53.4903 32 32 53.4903 32 80Z" fill="#0DB95C"/>
<path d="M160 80C160 62.4784 154.248 45.4413 143.626 31.5058C133.005 17.5704 118.103 7.50727 101.208 2.8623C84.3132 -1.78266 66.3607 -0.752572 50.1082 5.79434C33.8557 12.3413 20.2019 24.0429 11.2444 39.1018C2.28685 54.1606 -1.4791 71.7438 0.525042 89.1505C2.52918 106.557 10.1926 122.824 22.338 135.454C34.4834 148.083 50.4392 156.375 67.7543 159.057C85.0695 161.739 102.786 158.663 118.183 150.3L102.91 122.18C93.6718 127.198 83.0417 129.044 72.6526 127.434C62.2635 125.825 52.6901 120.85 45.4028 113.272C38.1155 105.695 33.5175 95.9343 32.315 85.4903C31.1125 75.0463 33.3721 64.4964 38.7466 55.4611C44.1212 46.4257 52.3134 39.4048 62.0649 35.4766C71.8164 31.5485 82.5879 30.9304 92.7248 33.7174C102.862 36.5044 111.803 42.5422 118.176 50.9035C124.549 59.2648 128 69.487 128 80H160Z" fill="#36393A"/>
<path d="M160 80C160 66.3845 156.525 52.9942 149.904 41.097C143.283 29.1998 133.735 19.1892 122.164 12.0132C110.593 4.83714 97.3819 0.733038 83.7816 0.0894289C70.1813 -0.55418 56.6418 2.28401 44.4449 8.33529C32.2479 14.3866 21.7973 23.4507 14.0823 34.6695C6.3673 45.8883 1.64329 58.8905 0.357516 72.4452C-0.928263 85.9999 1.26673 99.6585 6.7347 112.128C12.2027 124.597 20.7626 135.465 31.6042 143.701L50.9625 118.221C44.4576 113.279 39.3216 106.758 36.0408 99.2767C32.76 91.7951 31.443 83.5999 32.2145 75.4671C32.986 67.3343 35.8204 59.533 40.4494 52.8017C45.0784 46.0704 51.3488 40.6319 58.6669 37.0012C65.9851 33.3704 74.1088 31.6675 82.269 32.0537C90.4292 32.4398 98.3558 34.9023 105.298 39.2079C112.241 43.5135 117.97 49.5199 121.942 56.6582C125.915 63.7965 128 71.8307 128 80H160Z" fill="#C22B4F"/>
<path d="M160 80C160 66.5032 156.585 53.2257 150.074 41.4036C143.562 29.5815 134.165 19.5989 122.758 12.3852C111.351 5.17152 98.3037 0.961149 84.8315 0.146028C71.3593 -0.669092 57.8999 1.93753 45.706 7.72328L59.4236 36.634C66.7399 33.1625 74.8156 31.5985 82.8989 32.0876C90.9822 32.5767 98.8104 35.1029 105.655 39.4311C112.499 43.7594 118.137 49.7489 122.044 56.8422C125.951 63.9354 128 71.9019 128 80H160Z" fill="#2B5EC2"/>
<path d="M107.933 31.1193C107.297 31.1193 106.73 31.0099 106.233 30.7912C105.739 30.5696 105.348 30.2656 105.061 29.8793C104.777 29.4901 104.631 29.0412 104.622 28.5327H106.48C106.491 28.7457 106.561 28.9332 106.689 29.0952C106.82 29.2543 106.993 29.3778 107.209 29.4659C107.425 29.554 107.668 29.598 107.938 29.598C108.219 29.598 108.467 29.5483 108.683 29.4489C108.899 29.3494 109.068 29.2116 109.19 29.0355C109.313 28.8594 109.374 28.6562 109.374 28.4261C109.374 28.1932 109.308 27.9872 109.178 27.8082C109.05 27.6264 108.865 27.4844 108.624 27.3821C108.385 27.2798 108.101 27.2287 107.771 27.2287H106.957V25.8736H107.771C108.05 25.8736 108.295 25.8253 108.509 25.7287C108.724 25.6321 108.892 25.4986 109.011 25.3281C109.131 25.1548 109.19 24.9531 109.19 24.723C109.19 24.5043 109.138 24.3125 109.033 24.1477C108.93 23.9801 108.786 23.8494 108.598 23.7557C108.413 23.6619 108.197 23.6151 107.95 23.6151C107.7 23.6151 107.472 23.6605 107.264 23.7514C107.057 23.8395 106.891 23.9659 106.766 24.1307C106.641 24.2955 106.574 24.4886 106.565 24.7102H104.797C104.805 24.2074 104.949 23.7642 105.227 23.3807C105.506 22.9972 105.881 22.6974 106.352 22.4815C106.827 22.2628 107.362 22.1534 107.959 22.1534C108.561 22.1534 109.088 22.2628 109.54 22.4815C109.991 22.7003 110.342 22.9957 110.592 23.3679C110.845 23.7372 110.97 24.152 110.967 24.6122C110.97 25.1009 110.818 25.5085 110.511 25.8352C110.207 26.1619 109.811 26.3693 109.322 26.4574V26.5256C109.964 26.608 110.453 26.831 110.788 27.1946C111.126 27.5554 111.294 28.0071 111.291 28.5497C111.294 29.0469 111.151 29.4886 110.861 29.875C110.574 30.2614 110.178 30.5653 109.672 30.7869C109.166 31.0085 108.587 31.1193 107.933 31.1193ZM112.618 31V29.6705L115.724 26.794C115.988 26.5384 116.21 26.3082 116.389 26.1037C116.571 25.8991 116.708 25.6989 116.802 25.5028C116.896 25.304 116.943 25.0895 116.943 24.8594C116.943 24.6037 116.885 24.3835 116.768 24.1989C116.652 24.0114 116.493 23.8679 116.291 23.7685C116.089 23.6662 115.86 23.6151 115.605 23.6151C115.338 23.6151 115.105 23.669 114.906 23.777C114.707 23.8849 114.554 24.0398 114.446 24.2415C114.338 24.4432 114.284 24.6832 114.284 24.9616H112.532C112.532 24.3906 112.662 23.8949 112.92 23.4744C113.179 23.054 113.541 22.7287 114.007 22.4986C114.473 22.2685 115.01 22.1534 115.618 22.1534C116.243 22.1534 116.787 22.2642 117.25 22.4858C117.716 22.7045 118.078 23.0085 118.336 23.3977C118.595 23.7869 118.724 24.233 118.724 24.7358C118.724 25.0653 118.659 25.3906 118.528 25.7116C118.4 26.0327 118.172 26.3892 117.842 26.7812C117.512 27.1705 117.048 27.6378 116.449 28.1832L115.174 29.4318V29.4915H118.839V31H112.618ZM124.953 29.3636V28.9034C124.953 28.554 125.027 28.233 125.175 27.9403C125.325 27.6449 125.543 27.4091 125.827 27.233C126.114 27.054 126.463 26.9645 126.875 26.9645C127.293 26.9645 127.643 27.0526 127.928 27.2287C128.214 27.4048 128.43 27.6406 128.575 27.9361C128.723 28.2287 128.797 28.5511 128.797 28.9034V29.3636C128.797 29.7131 128.723 30.0355 128.575 30.331C128.428 30.6236 128.21 30.858 127.923 31.0341C127.636 31.2131 127.287 31.3026 126.875 31.3026C126.457 31.3026 126.107 31.2131 125.822 31.0341C125.538 30.858 125.322 30.6236 125.175 30.331C125.027 30.0355 124.953 29.7131 124.953 29.3636ZM126.193 28.9034V29.3636C126.193 29.5653 126.241 29.7557 126.338 29.9347C126.438 30.1136 126.616 30.2031 126.875 30.2031C127.134 30.2031 127.31 30.1151 127.403 29.9389C127.5 29.7628 127.548 29.571 127.548 29.3636V28.9034C127.548 28.696 127.503 28.5028 127.412 28.3239C127.321 28.1449 127.142 28.0554 126.875 28.0554C126.619 28.0554 126.442 28.1449 126.342 28.3239C126.243 28.5028 126.193 28.696 126.193 28.9034ZM120.474 24.3693V23.9091C120.474 23.5568 120.55 23.2344 120.7 22.9418C120.851 22.6463 121.068 22.4105 121.352 22.2344C121.639 22.0582 121.986 21.9702 122.392 21.9702C122.813 21.9702 123.165 22.0582 123.449 22.2344C123.733 22.4105 123.949 22.6463 124.097 22.9418C124.244 23.2344 124.318 23.5568 124.318 23.9091V24.3693C124.318 24.7216 124.243 25.044 124.092 25.3366C123.945 25.6293 123.727 25.8636 123.44 26.0398C123.156 26.2131 122.807 26.2997 122.392 26.2997C121.977 26.2997 121.626 26.2116 121.339 26.0355C121.055 25.8565 120.839 25.6222 120.692 25.3324C120.547 25.0398 120.474 24.7187 120.474 24.3693ZM121.723 23.9091V24.3693C121.723 24.5767 121.771 24.7685 121.868 24.9446C121.967 25.1207 122.142 25.2088 122.392 25.2088C122.653 25.2088 122.831 25.1207 122.925 24.9446C123.021 24.7685 123.07 24.5767 123.07 24.3693V23.9091C123.07 23.7017 123.024 23.5085 122.933 23.3295C122.842 23.1506 122.662 23.0611 122.392 23.0611C122.139 23.0611 121.964 23.152 121.868 23.3338C121.771 23.5156 121.723 23.7074 121.723 23.9091ZM121.037 31L127.037 22.2727H128.153L122.153 31H121.037Z" fill="white"/>
<path d="M6.93324 82.1193C6.29688 82.1193 5.73011 82.0099 5.23295 81.7912C4.73864 81.5696 4.34801 81.2656 4.06108 80.8793C3.77699 80.4901 3.63068 80.0412 3.62216 79.5327H5.48011C5.49148 79.7457 5.56108 79.9332 5.68892 80.0952C5.8196 80.2543 5.9929 80.3778 6.20881 80.4659C6.42472 80.554 6.66761 80.598 6.9375 80.598C7.21875 80.598 7.46733 80.5483 7.68324 80.4489C7.89915 80.3494 8.06818 80.2116 8.19034 80.0355C8.3125 79.8594 8.37358 79.6562 8.37358 79.4261C8.37358 79.1932 8.30824 78.9872 8.17756 78.8082C8.04972 78.6264 7.86506 78.4844 7.62358 78.3821C7.38494 78.2798 7.10085 78.2287 6.77131 78.2287H5.95739V76.8736H6.77131C7.04972 76.8736 7.29545 76.8253 7.50852 76.7287C7.72443 76.6321 7.89205 76.4986 8.01136 76.3281C8.13068 76.1548 8.19034 75.9531 8.19034 75.723C8.19034 75.5043 8.13778 75.3125 8.03267 75.1477C7.9304 74.9801 7.78551 74.8494 7.59801 74.7557C7.41335 74.6619 7.19744 74.6151 6.95028 74.6151C6.70028 74.6151 6.47159 74.6605 6.2642 74.7514C6.05682 74.8395 5.89062 74.9659 5.76562 75.1307C5.64062 75.2955 5.57386 75.4886 5.56534 75.7102H3.79688C3.8054 75.2074 3.94886 74.7642 4.22727 74.3807C4.50568 73.9972 4.88068 73.6974 5.35227 73.4815C5.8267 73.2628 6.36222 73.1534 6.95881 73.1534C7.56108 73.1534 8.08807 73.2628 8.53977 73.4815C8.99148 73.7003 9.34233 73.9957 9.59233 74.3679C9.84517 74.7372 9.97017 75.152 9.96733 75.6122C9.97017 76.1009 9.81818 76.5085 9.51136 76.8352C9.20739 77.1619 8.81108 77.3693 8.32244 77.4574V77.5256C8.96449 77.608 9.45313 77.831 9.78835 78.1946C10.1264 78.5554 10.294 79.0071 10.2912 79.5497C10.294 80.0469 10.1506 80.4886 9.8608 80.875C9.57386 81.2614 9.17756 81.5653 8.67188 81.7869C8.16619 82.0085 7.58665 82.1193 6.93324 82.1193ZM11.4854 80.4659V79.0128L15.1289 73.2727H16.3817V75.2841H15.6403L13.3434 78.919V78.9872H18.521V80.4659H11.4854ZM15.6744 82V80.0227L15.7085 79.3793V73.2727H17.4386V82H15.6744ZM24.5273 80.3636V79.9034C24.5273 79.554 24.6012 79.233 24.7489 78.9403C24.8995 78.6449 25.1168 78.4091 25.4009 78.233C25.6879 78.054 26.0373 77.9645 26.4492 77.9645C26.8668 77.9645 27.2177 78.0526 27.5018 78.2287C27.7887 78.4048 28.0046 78.6406 28.1495 78.9361C28.2972 79.2287 28.3711 79.5511 28.3711 79.9034V80.3636C28.3711 80.7131 28.2972 81.0355 28.1495 81.331C28.0018 81.6236 27.7844 81.858 27.4975 82.0341C27.2106 82.2131 26.8612 82.3026 26.4492 82.3026C26.0316 82.3026 25.6808 82.2131 25.3967 82.0341C25.1126 81.858 24.8967 81.6236 24.7489 81.331C24.6012 81.0355 24.5273 80.7131 24.5273 80.3636ZM25.7674 79.9034V80.3636C25.7674 80.5653 25.8157 80.7557 25.9123 80.9347C26.0117 81.1136 26.1907 81.2031 26.4492 81.2031C26.7077 81.2031 26.8839 81.1151 26.9776 80.9389C27.0742 80.7628 27.1225 80.571 27.1225 80.3636V79.9034C27.1225 79.696 27.0771 79.5028 26.9862 79.3239C26.8952 79.1449 26.7163 79.0554 26.4492 79.0554C26.1935 79.0554 26.016 79.1449 25.9165 79.3239C25.8171 79.5028 25.7674 79.696 25.7674 79.9034ZM20.0487 75.3693V74.9091C20.0487 74.5568 20.1239 74.2344 20.2745 73.9418C20.4251 73.6463 20.6424 73.4105 20.9265 73.2344C21.2134 73.0582 21.56 72.9702 21.9663 72.9702C22.3867 72.9702 22.739 73.0582 23.0231 73.2344C23.3072 73.4105 23.5231 73.6463 23.6708 73.9418C23.8185 74.2344 23.8924 74.5568 23.8924 74.9091V75.3693C23.8924 75.7216 23.8171 76.044 23.6665 76.3366C23.5188 76.6293 23.3015 76.8636 23.0146 77.0398C22.7305 77.2131 22.381 77.2997 21.9663 77.2997C21.5515 77.2997 21.2006 77.2116 20.9137 77.0355C20.6296 76.8565 20.4137 76.6222 20.266 76.3324C20.1211 76.0398 20.0487 75.7187 20.0487 75.3693ZM21.2972 74.9091V75.3693C21.2972 75.5767 21.3455 75.7685 21.4421 75.9446C21.5415 76.1207 21.7163 76.2088 21.9663 76.2088C22.2276 76.2088 22.4052 76.1207 22.4989 75.9446C22.5955 75.7685 22.6438 75.5767 22.6438 75.3693V74.9091C22.6438 74.7017 22.5984 74.5085 22.5075 74.3295C22.4165 74.1506 22.2362 74.0611 21.9663 74.0611C21.7134 74.0611 21.5387 74.152 21.4421 74.3338C21.3455 74.5156 21.2972 74.7074 21.2972 74.9091ZM20.6112 82L26.6112 73.2727H27.7276L21.7276 82H20.6112Z" fill="white"/>
<path d="M71.5043 137.273V146H69.6591V139.024H69.608L67.6094 140.277V138.641L69.7699 137.273H71.5043ZM73.4464 144.466V143.013L77.0898 137.273H78.3427V139.284H77.6012L75.3043 142.919V142.987H80.4819V144.466H73.4464ZM77.6353 146V144.023L77.6694 143.379V137.273H79.3995V146H77.6353ZM86.4883 144.364V143.903C86.4883 143.554 86.5621 143.233 86.7099 142.94C86.8604 142.645 87.0778 142.409 87.3619 142.233C87.6488 142.054 87.9982 141.964 88.4102 141.964C88.8278 141.964 89.1786 142.053 89.4627 142.229C89.7496 142.405 89.9656 142.641 90.1104 142.936C90.2582 143.229 90.332 143.551 90.332 143.903V144.364C90.332 144.713 90.2582 145.036 90.1104 145.331C89.9627 145.624 89.7454 145.858 89.4585 146.034C89.1715 146.213 88.8221 146.303 88.4102 146.303C87.9925 146.303 87.6417 146.213 87.3576 146.034C87.0735 145.858 86.8576 145.624 86.7099 145.331C86.5621 145.036 86.4883 144.713 86.4883 144.364ZM87.7283 143.903V144.364C87.7283 144.565 87.7766 144.756 87.8732 144.935C87.9727 145.114 88.1516 145.203 88.4102 145.203C88.6687 145.203 88.8448 145.115 88.9386 144.939C89.0352 144.763 89.0835 144.571 89.0835 144.364V143.903C89.0835 143.696 89.038 143.503 88.9471 143.324C88.8562 143.145 88.6772 143.055 88.4102 143.055C88.1545 143.055 87.9769 143.145 87.8775 143.324C87.7781 143.503 87.7283 143.696 87.7283 143.903ZM82.0096 139.369V138.909C82.0096 138.557 82.0849 138.234 82.2354 137.942C82.386 137.646 82.6033 137.411 82.8874 137.234C83.1744 137.058 83.521 136.97 83.9272 136.97C84.3477 136.97 84.6999 137.058 84.984 137.234C85.2681 137.411 85.484 137.646 85.6317 137.942C85.7795 138.234 85.8533 138.557 85.8533 138.909V139.369C85.8533 139.722 85.7781 140.044 85.6275 140.337C85.4798 140.629 85.2624 140.864 84.9755 141.04C84.6914 141.213 84.342 141.3 83.9272 141.3C83.5124 141.3 83.1616 141.212 82.8746 141.036C82.5906 140.857 82.3746 140.622 82.2269 140.332C82.082 140.04 82.0096 139.719 82.0096 139.369ZM83.2582 138.909V139.369C83.2582 139.577 83.3065 139.768 83.4031 139.945C83.5025 140.121 83.6772 140.209 83.9272 140.209C84.1886 140.209 84.3661 140.121 84.4599 139.945C84.5565 139.768 84.6048 139.577 84.6048 139.369V138.909C84.6048 138.702 84.5593 138.509 84.4684 138.33C84.3775 138.151 84.1971 138.061 83.9272 138.061C83.6744 138.061 83.4996 138.152 83.4031 138.334C83.3065 138.516 83.2582 138.707 83.2582 138.909ZM82.5721 146L88.5721 137.273H89.6886L83.6886 146H82.5721Z" fill="white"/>
<path d="M125.707 113V111.67L128.814 108.794C129.078 108.538 129.3 108.308 129.479 108.104C129.661 107.899 129.798 107.699 129.892 107.503C129.986 107.304 130.033 107.089 130.033 106.859C130.033 106.604 129.974 106.384 129.858 106.199C129.741 106.011 129.582 105.868 129.381 105.768C129.179 105.666 128.95 105.615 128.695 105.615C128.428 105.615 128.195 105.669 127.996 105.777C127.797 105.885 127.643 106.04 127.536 106.241C127.428 106.443 127.374 106.683 127.374 106.962H125.622C125.622 106.391 125.751 105.895 126.01 105.474C126.268 105.054 126.631 104.729 127.097 104.499C127.563 104.268 128.099 104.153 128.707 104.153C129.332 104.153 129.876 104.264 130.339 104.486C130.805 104.705 131.168 105.009 131.426 105.398C131.685 105.787 131.814 106.233 131.814 106.736C131.814 107.065 131.749 107.391 131.618 107.712C131.49 108.033 131.261 108.389 130.932 108.781C130.602 109.17 130.138 109.638 129.538 110.183L128.264 111.432V111.491H131.929V113H125.707ZM136.688 113.192C135.955 113.189 135.324 113.009 134.796 112.651C134.27 112.293 133.865 111.774 133.581 111.095C133.3 110.416 133.161 109.599 133.164 108.645C133.164 107.693 133.304 106.882 133.586 106.212C133.87 105.541 134.275 105.031 134.8 104.682C135.328 104.33 135.958 104.153 136.688 104.153C137.418 104.153 138.046 104.33 138.571 104.682C139.1 105.034 139.506 105.545 139.79 106.216C140.074 106.884 140.215 107.693 140.212 108.645C140.212 109.602 140.07 110.42 139.786 111.099C139.505 111.778 139.101 112.297 138.576 112.655C138.05 113.013 137.421 113.192 136.688 113.192ZM136.688 111.662C137.188 111.662 137.587 111.411 137.885 110.908C138.184 110.405 138.331 109.651 138.328 108.645C138.328 107.983 138.26 107.432 138.124 106.991C137.99 106.551 137.8 106.22 137.553 105.999C137.309 105.777 137.02 105.666 136.688 105.666C136.191 105.666 135.793 105.915 135.495 106.412C135.196 106.909 135.046 107.653 135.043 108.645C135.043 109.315 135.11 109.875 135.243 110.324C135.38 110.77 135.571 111.105 135.819 111.33C136.066 111.551 136.355 111.662 136.688 111.662ZM146.305 111.364V110.903C146.305 110.554 146.379 110.233 146.526 109.94C146.677 109.645 146.894 109.409 147.178 109.233C147.465 109.054 147.815 108.964 148.227 108.964C148.644 108.964 148.995 109.053 149.279 109.229C149.566 109.405 149.782 109.641 149.927 109.936C150.075 110.229 150.148 110.551 150.148 110.903V111.364C150.148 111.713 150.075 112.036 149.927 112.331C149.779 112.624 149.562 112.858 149.275 113.034C148.988 113.213 148.638 113.303 148.227 113.303C147.809 113.303 147.458 113.213 147.174 113.034C146.89 112.858 146.674 112.624 146.526 112.331C146.379 112.036 146.305 111.713 146.305 111.364ZM147.545 110.903V111.364C147.545 111.565 147.593 111.756 147.69 111.935C147.789 112.114 147.968 112.203 148.227 112.203C148.485 112.203 148.661 112.115 148.755 111.939C148.852 111.763 148.9 111.571 148.9 111.364V110.903C148.9 110.696 148.854 110.503 148.763 110.324C148.673 110.145 148.494 110.055 148.227 110.055C147.971 110.055 147.793 110.145 147.694 110.324C147.594 110.503 147.545 110.696 147.545 110.903ZM141.826 106.369V105.909C141.826 105.557 141.901 105.234 142.052 104.942C142.202 104.646 142.42 104.411 142.704 104.234C142.991 104.058 143.337 103.97 143.744 103.97C144.164 103.97 144.516 104.058 144.8 104.234C145.085 104.411 145.3 104.646 145.448 104.942C145.596 105.234 145.67 105.557 145.67 105.909V106.369C145.67 106.722 145.594 107.044 145.444 107.337C145.296 107.629 145.079 107.864 144.792 108.04C144.508 108.213 144.158 108.3 143.744 108.3C143.329 108.3 142.978 108.212 142.691 108.036C142.407 107.857 142.191 107.622 142.043 107.332C141.898 107.04 141.826 106.719 141.826 106.369ZM143.075 105.909V106.369C143.075 106.577 143.123 106.768 143.219 106.945C143.319 107.121 143.494 107.209 143.744 107.209C144.005 107.209 144.183 107.121 144.276 106.945C144.373 106.768 144.421 106.577 144.421 106.369V105.909C144.421 105.702 144.376 105.509 144.285 105.33C144.194 105.151 144.013 105.061 143.744 105.061C143.491 105.061 143.316 105.152 143.219 105.334C143.123 105.516 143.075 105.707 143.075 105.909ZM142.388 113L148.388 104.273H149.505L143.505 113H142.388Z" fill="white"/>
</svg>
