<svg width="160" height="160" viewBox="0 0 160 160" fill="none" xmlns="http://www.w3.org/2000/svg">
<path d="M160 80C160 124.183 124.183 160 80 160C35.8172 160 0 124.183 0 80C0 35.8172 35.8172 0 80 0C124.183 0 160 35.8172 160 80ZM32 80C32 106.51 53.4903 128 80 128C106.51 128 128 106.51 128 80C128 53.4903 106.51 32 80 32C53.4903 32 32 53.4903 32 80Z" fill="#0DB95C"/>
<path d="M160 80C160 63.8253 155.097 48.0306 145.938 34.699C136.779 21.3674 123.794 11.1253 108.695 5.32356C93.5971 -0.478187 77.0948 -1.56703 61.365 2.20066C45.6353 5.96834 31.4171 14.4156 20.5857 26.4281C9.75438 38.4407 2.81872 53.4544 0.693535 69.4888C-1.43165 85.5233 1.35348 101.825 8.68156 116.245C16.0096 130.664 27.5364 142.524 41.7416 150.259C55.9468 157.994 72.163 161.242 88.2514 159.573L84.9508 127.744C75.2978 128.745 65.5681 126.796 57.045 122.155C48.5219 117.514 41.6058 110.398 37.2089 101.747C32.8121 93.0952 31.141 83.314 32.4161 73.6933C33.6912 64.0726 37.8526 55.0644 44.3514 47.8569C50.8502 40.6493 59.3812 35.581 68.819 33.3204C78.2569 31.0598 88.1583 31.7131 97.2173 35.1941C106.276 38.6752 114.067 44.8204 119.563 52.8194C125.058 60.8183 128 70.2952 128 80H160Z" fill="#36393A"/>
<path d="M160 80C160 60.67 153.001 41.9937 140.298 27.4242C127.594 12.8548 110.045 3.37777 90.8948 0.745321C71.7448 -1.88713 52.2894 2.50309 36.1257 13.1042C19.962 23.7054 8.18325 39.8004 2.9674 58.4135L33.7804 67.0481C36.9099 55.8803 43.9772 46.2232 53.6754 39.8625C63.3736 33.5019 75.0469 30.8677 86.5369 32.4472C98.0268 34.0267 108.556 39.7129 116.179 48.4546C123.801 57.1962 128 68.402 128 80H160Z" fill="#C22B4F"/>
<path d="M160 80C160 69.4942 157.931 59.0914 153.91 49.3853C149.89 39.6793 143.997 30.8601 136.569 23.4315C129.14 16.0028 120.321 10.11 110.615 6.08964C100.909 2.06926 90.5057 -4.59221e-07 80 0V32C86.3035 32 92.5452 33.2416 98.3688 35.6538C104.192 38.066 109.484 41.6017 113.941 46.0589C118.398 50.5161 121.934 55.8076 124.346 61.6312C126.758 67.4548 128 73.6965 128 80H160Z" fill="#2B5EC2"/>
<path d="M114.707 40V38.6705L117.814 35.794C118.078 35.5384 118.3 35.3082 118.479 35.1037C118.661 34.8991 118.798 34.6989 118.892 34.5028C118.986 34.304 119.033 34.0895 119.033 33.8594C119.033 33.6037 118.974 33.3835 118.858 33.1989C118.741 33.0114 118.582 32.8679 118.381 32.7685C118.179 32.6662 117.95 32.6151 117.695 32.6151C117.428 32.6151 117.195 32.669 116.996 32.777C116.797 32.8849 116.643 33.0398 116.536 33.2415C116.428 33.4432 116.374 33.6832 116.374 33.9616H114.622C114.622 33.3906 114.751 32.8949 115.01 32.4744C115.268 32.054 115.631 31.7287 116.097 31.4986C116.563 31.2685 117.099 31.1534 117.707 31.1534C118.332 31.1534 118.876 31.2642 119.339 31.4858C119.805 31.7045 120.168 32.0085 120.426 32.3977C120.685 32.7869 120.814 33.233 120.814 33.7358C120.814 34.0653 120.749 34.3906 120.618 34.7116C120.49 35.0327 120.261 35.3892 119.932 35.7812C119.602 36.1705 119.138 36.6378 118.538 37.1832L117.264 38.4318V38.4915H120.929V40H114.707ZM125.453 40.1193C124.851 40.1193 124.314 40.0085 123.843 39.7869C123.374 39.5653 123.002 39.2599 122.726 38.8707C122.451 38.4815 122.307 38.0355 122.296 37.5327H124.086C124.105 37.8707 124.248 38.1449 124.512 38.3551C124.776 38.5653 125.09 38.6705 125.453 38.6705C125.743 38.6705 125.999 38.6065 126.221 38.4787C126.445 38.348 126.62 38.1676 126.745 37.9375C126.873 37.7045 126.936 37.4375 126.936 37.1364C126.936 36.8295 126.871 36.5597 126.74 36.3267C126.613 36.0937 126.435 35.9119 126.208 35.7812C125.98 35.6506 125.721 35.5838 125.428 35.581C125.172 35.581 124.924 35.6335 124.682 35.7386C124.444 35.8437 124.257 35.9872 124.124 36.169L122.483 35.875L122.897 31.2727H128.232V32.7812H124.418L124.192 34.9673H124.243C124.397 34.7514 124.628 34.5724 124.938 34.4304C125.248 34.2884 125.594 34.2173 125.978 34.2173C126.503 34.2173 126.972 34.3409 127.384 34.5881C127.796 34.8352 128.121 35.1747 128.36 35.6065C128.598 36.0355 128.716 36.5298 128.713 37.0895C128.716 37.6776 128.58 38.2003 128.304 38.6577C128.032 39.1122 127.65 39.4702 127.158 39.7315C126.669 39.9901 126.101 40.1193 125.453 40.1193ZM134.777 38.3636V37.9034C134.777 37.554 134.851 37.233 134.999 36.9403C135.15 36.6449 135.367 36.4091 135.651 36.233C135.938 36.054 136.287 35.9645 136.699 35.9645C137.117 35.9645 137.468 36.0526 137.752 36.2287C138.039 36.4048 138.255 36.6406 138.4 36.9361C138.547 37.2287 138.621 37.5511 138.621 37.9034V38.3636C138.621 38.7131 138.547 39.0355 138.4 39.331C138.252 39.6236 138.034 39.858 137.748 40.0341C137.461 40.2131 137.111 40.3026 136.699 40.3026C136.282 40.3026 135.931 40.2131 135.647 40.0341C135.363 39.858 135.147 39.6236 134.999 39.331C134.851 39.0355 134.777 38.7131 134.777 38.3636ZM136.017 37.9034V38.3636C136.017 38.5653 136.066 38.7557 136.162 38.9347C136.262 39.1136 136.441 39.2031 136.699 39.2031C136.958 39.2031 137.134 39.1151 137.228 38.9389C137.324 38.7628 137.373 38.571 137.373 38.3636V37.9034C137.373 37.696 137.327 37.5028 137.236 37.3239C137.145 37.1449 136.966 37.0554 136.699 37.0554C136.444 37.0554 136.266 37.1449 136.167 37.3239C136.067 37.5028 136.017 37.696 136.017 37.9034ZM130.299 33.3693V32.9091C130.299 32.5568 130.374 32.2344 130.525 31.9418C130.675 31.6463 130.892 31.4105 131.176 31.2344C131.463 31.0582 131.81 30.9702 132.216 30.9702C132.637 30.9702 132.989 31.0582 133.273 31.2344C133.557 31.4105 133.773 31.6463 133.921 31.9418C134.069 32.2344 134.142 32.5568 134.142 32.9091V33.3693C134.142 33.7216 134.067 34.044 133.917 34.3366C133.769 34.6293 133.551 34.8636 133.265 35.0398C132.98 35.2131 132.631 35.2997 132.216 35.2997C131.801 35.2997 131.451 35.2116 131.164 35.0355C130.88 34.8565 130.664 34.6222 130.516 34.3324C130.371 34.0398 130.299 33.7187 130.299 33.3693ZM131.547 32.9091V33.3693C131.547 33.5767 131.596 33.7685 131.692 33.9446C131.792 34.1207 131.966 34.2088 132.216 34.2088C132.478 34.2088 132.655 34.1207 132.749 33.9446C132.846 33.7685 132.894 33.5767 132.894 33.3693V32.9091C132.894 32.7017 132.848 32.5085 132.757 32.3295C132.667 32.1506 132.486 32.0611 132.216 32.0611C131.963 32.0611 131.789 32.152 131.692 32.3338C131.596 32.5156 131.547 32.7074 131.547 32.9091ZM130.861 40L136.861 31.2727H137.978L131.978 40H130.861Z" fill="white"/>
<path d="M27.7074 36V34.6705L30.8139 31.794C31.0781 31.5384 31.2997 31.3082 31.4787 31.1037C31.6605 30.8991 31.7983 30.6989 31.892 30.5028C31.9858 30.304 32.0327 30.0895 32.0327 29.8594C32.0327 29.6037 31.9744 29.3835 31.858 29.1989C31.7415 29.0114 31.5824 28.8679 31.3807 28.7685C31.179 28.6662 30.9503 28.6151 30.6946 28.6151C30.4276 28.6151 30.1946 28.669 29.9957 28.777C29.7969 28.8849 29.6435 29.0398 29.5355 29.2415C29.4276 29.4432 29.3736 29.6832 29.3736 29.9616H27.6222C27.6222 29.3906 27.7514 28.8949 28.0099 28.4744C28.2685 28.054 28.6307 27.7287 29.0966 27.4986C29.5625 27.2685 30.0994 27.1534 30.7074 27.1534C31.3324 27.1534 31.8764 27.2642 32.3395 27.4858C32.8054 27.7045 33.1676 28.0085 33.4261 28.3977C33.6847 28.7869 33.8139 29.233 33.8139 29.7358C33.8139 30.0653 33.7486 30.3906 33.6179 30.7116C33.4901 31.0327 33.2614 31.3892 32.9318 31.7812C32.6023 32.1705 32.1378 32.6378 31.5384 33.1832L30.2642 34.4318V34.4915H33.929V36H27.7074ZM35.266 36V34.6705L38.3725 31.794C38.6367 31.5384 38.8583 31.3082 39.0373 31.1037C39.2191 30.8991 39.3569 30.6989 39.4506 30.5028C39.5444 30.304 39.5913 30.0895 39.5913 29.8594C39.5913 29.6037 39.533 29.3835 39.4165 29.1989C39.3001 29.0114 39.141 28.8679 38.9393 28.7685C38.7376 28.6662 38.5089 28.6151 38.2532 28.6151C37.9862 28.6151 37.7532 28.669 37.5543 28.777C37.3555 28.8849 37.2021 29.0398 37.0941 29.2415C36.9862 29.4432 36.9322 29.6832 36.9322 29.9616H35.1808C35.1808 29.3906 35.31 28.8949 35.5685 28.4744C35.8271 28.054 36.1893 27.7287 36.6552 27.4986C37.1211 27.2685 37.658 27.1534 38.266 27.1534C38.891 27.1534 39.435 27.2642 39.8981 27.4858C40.364 27.7045 40.7262 28.0085 40.9847 28.3977C41.2433 28.7869 41.3725 29.233 41.3725 29.7358C41.3725 30.0653 41.3072 30.3906 41.1765 30.7116C41.0487 31.0327 40.82 31.3892 40.4904 31.7812C40.1609 32.1705 39.6964 32.6378 39.0969 33.1832L37.8228 34.4318V34.4915H41.4876V36H35.266ZM47.6016 34.3636V33.9034C47.6016 33.554 47.6754 33.233 47.8232 32.9403C47.9737 32.6449 48.1911 32.4091 48.4751 32.233C48.7621 32.054 49.1115 31.9645 49.5234 31.9645C49.9411 31.9645 50.2919 32.0526 50.576 32.2287C50.8629 32.4048 51.0788 32.6406 51.2237 32.9361C51.3714 33.2287 51.4453 33.5511 51.4453 33.9034V34.3636C51.4453 34.7131 51.3714 35.0355 51.2237 35.331C51.076 35.6236 50.8587 35.858 50.5717 36.0341C50.2848 36.2131 49.9354 36.3026 49.5234 36.3026C49.1058 36.3026 48.755 36.2131 48.4709 36.0341C48.1868 35.858 47.9709 35.6236 47.8232 35.331C47.6754 35.0355 47.6016 34.7131 47.6016 34.3636ZM48.8416 33.9034V34.3636C48.8416 34.5653 48.8899 34.7557 48.9865 34.9347C49.0859 35.1136 49.2649 35.2031 49.5234 35.2031C49.782 35.2031 49.9581 35.1151 50.0518 34.9389C50.1484 34.7628 50.1967 34.571 50.1967 34.3636V33.9034C50.1967 33.696 50.1513 33.5028 50.0604 33.3239C49.9695 33.1449 49.7905 33.0554 49.5234 33.0554C49.2678 33.0554 49.0902 33.1449 48.9908 33.3239C48.8913 33.5028 48.8416 33.696 48.8416 33.9034ZM43.1229 29.3693V28.9091C43.1229 28.5568 43.1982 28.2344 43.3487 27.9418C43.4993 27.6463 43.7166 27.4105 44.0007 27.2344C44.2876 27.0582 44.6342 26.9702 45.0405 26.9702C45.4609 26.9702 45.8132 27.0582 46.0973 27.2344C46.3814 27.4105 46.5973 27.6463 46.745 27.9418C46.8928 28.2344 46.9666 28.5568 46.9666 28.9091V29.3693C46.9666 29.7216 46.8913 30.044 46.7408 30.3366C46.593 30.6293 46.3757 30.8636 46.0888 31.0398C45.8047 31.2131 45.4553 31.2997 45.0405 31.2997C44.6257 31.2997 44.2749 31.2116 43.9879 31.0355C43.7038 30.8565 43.4879 30.6222 43.3402 30.3324C43.1953 30.0398 43.1229 29.7187 43.1229 29.3693ZM44.3714 28.9091V29.3693C44.3714 29.5767 44.4197 29.7685 44.5163 29.9446C44.6158 30.1207 44.7905 30.2088 45.0405 30.2088C45.3018 30.2088 45.4794 30.1207 45.5732 29.9446C45.6697 29.7685 45.718 29.5767 45.718 29.3693V28.9091C45.718 28.7017 45.6726 28.5085 45.5817 28.3295C45.4908 28.1506 45.3104 28.0611 45.0405 28.0611C44.7876 28.0611 44.6129 28.152 44.5163 28.3338C44.4197 28.5156 44.3714 28.7074 44.3714 28.9091ZM43.6854 36L49.6854 27.2727H50.8018L44.8018 36H43.6854Z" fill="white"/>
<path d="M24.9332 127.119C24.2969 127.119 23.7301 127.01 23.233 126.791C22.7386 126.57 22.348 126.266 22.0611 125.879C21.777 125.49 21.6307 125.041 21.6222 124.533H23.4801C23.4915 124.746 23.5611 124.933 23.6889 125.095C23.8196 125.254 23.9929 125.378 24.2088 125.466C24.4247 125.554 24.6676 125.598 24.9375 125.598C25.2188 125.598 25.4673 125.548 25.6832 125.449C25.8991 125.349 26.0682 125.212 26.1903 125.036C26.3125 124.859 26.3736 124.656 26.3736 124.426C26.3736 124.193 26.3082 123.987 26.1776 123.808C26.0497 123.626 25.8651 123.484 25.6236 123.382C25.3849 123.28 25.1009 123.229 24.7713 123.229H23.9574V121.874H24.7713C25.0497 121.874 25.2955 121.825 25.5085 121.729C25.7244 121.632 25.892 121.499 26.0114 121.328C26.1307 121.155 26.1903 120.953 26.1903 120.723C26.1903 120.504 26.1378 120.312 26.0327 120.148C25.9304 119.98 25.7855 119.849 25.598 119.756C25.4134 119.662 25.1974 119.615 24.9503 119.615C24.7003 119.615 24.4716 119.661 24.2642 119.751C24.0568 119.839 23.8906 119.966 23.7656 120.131C23.6406 120.295 23.5739 120.489 23.5653 120.71H21.7969C21.8054 120.207 21.9489 119.764 22.2273 119.381C22.5057 118.997 22.8807 118.697 23.3523 118.482C23.8267 118.263 24.3622 118.153 24.9588 118.153C25.5611 118.153 26.0881 118.263 26.5398 118.482C26.9915 118.7 27.3423 118.996 27.5923 119.368C27.8452 119.737 27.9702 120.152 27.9673 120.612C27.9702 121.101 27.8182 121.509 27.5114 121.835C27.2074 122.162 26.8111 122.369 26.3224 122.457V122.526C26.9645 122.608 27.4531 122.831 27.7884 123.195C28.1264 123.555 28.294 124.007 28.2912 124.55C28.294 125.047 28.1506 125.489 27.8608 125.875C27.5739 126.261 27.1776 126.565 26.6719 126.787C26.1662 127.009 25.5866 127.119 24.9332 127.119ZM33.0394 127.192C32.3065 127.189 31.6758 127.009 31.1474 126.651C30.6218 126.293 30.217 125.774 29.9329 125.095C29.6516 124.416 29.5124 123.599 29.5153 122.645C29.5153 121.693 29.6559 120.882 29.9371 120.212C30.2212 119.541 30.6261 119.031 31.1516 118.682C31.68 118.33 32.3093 118.153 33.0394 118.153C33.7695 118.153 34.3974 118.33 34.9229 118.682C35.4513 119.034 35.8576 119.545 36.1417 120.216C36.4258 120.884 36.5664 121.693 36.5636 122.645C36.5636 123.602 36.4215 124.42 36.1374 125.099C35.8562 125.778 35.4528 126.297 34.9272 126.655C34.4016 127.013 33.7724 127.192 33.0394 127.192ZM33.0394 125.662C33.5394 125.662 33.9386 125.411 34.2369 124.908C34.5352 124.405 34.6829 123.651 34.68 122.645C34.68 121.983 34.6119 121.432 34.4755 120.991C34.342 120.551 34.1516 120.22 33.9045 119.999C33.6602 119.777 33.3718 119.666 33.0394 119.666C32.5423 119.666 32.1445 119.915 31.8462 120.412C31.5479 120.909 31.3974 121.653 31.3945 122.645C31.3945 123.315 31.4613 123.875 31.5948 124.324C31.7312 124.77 31.9229 125.105 32.1701 125.33C32.4173 125.551 32.707 125.662 33.0394 125.662ZM42.6562 125.364V124.903C42.6562 124.554 42.7301 124.233 42.8778 123.94C43.0284 123.645 43.2457 123.409 43.5298 123.233C43.8168 123.054 44.1662 122.964 44.5781 122.964C44.9957 122.964 45.3466 123.053 45.6307 123.229C45.9176 123.405 46.1335 123.641 46.2784 123.936C46.4261 124.229 46.5 124.551 46.5 124.903V125.364C46.5 125.713 46.4261 126.036 46.2784 126.331C46.1307 126.624 45.9134 126.858 45.6264 127.034C45.3395 127.213 44.9901 127.303 44.5781 127.303C44.1605 127.303 43.8097 127.213 43.5256 127.034C43.2415 126.858 43.0256 126.624 42.8778 126.331C42.7301 126.036 42.6562 125.713 42.6562 125.364ZM43.8963 124.903V125.364C43.8963 125.565 43.9446 125.756 44.0412 125.935C44.1406 126.114 44.3196 126.203 44.5781 126.203C44.8366 126.203 45.0128 126.115 45.1065 125.939C45.2031 125.763 45.2514 125.571 45.2514 125.364V124.903C45.2514 124.696 45.206 124.503 45.1151 124.324C45.0241 124.145 44.8452 124.055 44.5781 124.055C44.3224 124.055 44.1449 124.145 44.0455 124.324C43.946 124.503 43.8963 124.696 43.8963 124.903ZM38.1776 120.369V119.909C38.1776 119.557 38.2528 119.234 38.4034 118.942C38.554 118.646 38.7713 118.411 39.0554 118.234C39.3423 118.058 39.6889 117.97 40.0952 117.97C40.5156 117.97 40.8679 118.058 41.152 118.234C41.4361 118.411 41.652 118.646 41.7997 118.942C41.9474 119.234 42.0213 119.557 42.0213 119.909V120.369C42.0213 120.722 41.946 121.044 41.7955 121.337C41.6477 121.629 41.4304 121.864 41.1435 122.04C40.8594 122.213 40.5099 122.3 40.0952 122.3C39.6804 122.3 39.3295 122.212 39.0426 122.036C38.7585 121.857 38.5426 121.622 38.3949 121.332C38.25 121.04 38.1776 120.719 38.1776 120.369ZM39.4261 119.909V120.369C39.4261 120.577 39.4744 120.768 39.571 120.945C39.6705 121.121 39.8452 121.209 40.0952 121.209C40.3565 121.209 40.5341 121.121 40.6278 120.945C40.7244 120.768 40.7727 120.577 40.7727 120.369V119.909C40.7727 119.702 40.7273 119.509 40.6364 119.33C40.5455 119.151 40.3651 119.061 40.0952 119.061C39.8423 119.061 39.6676 119.152 39.571 119.334C39.4744 119.516 39.4261 119.707 39.4261 119.909ZM38.7401 127L44.7401 118.273H45.8565L39.8565 127H38.7401Z" fill="white"/>
<path d="M119.707 122V120.67L122.814 117.794C123.078 117.538 123.3 117.308 123.479 117.104C123.661 116.899 123.798 116.699 123.892 116.503C123.986 116.304 124.033 116.089 124.033 115.859C124.033 115.604 123.974 115.384 123.858 115.199C123.741 115.011 123.582 114.868 123.381 114.768C123.179 114.666 122.95 114.615 122.695 114.615C122.428 114.615 122.195 114.669 121.996 114.777C121.797 114.885 121.643 115.04 121.536 115.241C121.428 115.443 121.374 115.683 121.374 115.962H119.622C119.622 115.391 119.751 114.895 120.01 114.474C120.268 114.054 120.631 113.729 121.097 113.499C121.563 113.268 122.099 113.153 122.707 113.153C123.332 113.153 123.876 113.264 124.339 113.486C124.805 113.705 125.168 114.009 125.426 114.398C125.685 114.787 125.814 115.233 125.814 115.736C125.814 116.065 125.749 116.391 125.618 116.712C125.49 117.033 125.261 117.389 124.932 117.781C124.602 118.17 124.138 118.638 123.538 119.183L122.264 120.432V120.491H125.929V122H119.707ZM130.492 122.119C129.855 122.119 129.289 122.01 128.792 121.791C128.297 121.57 127.907 121.266 127.62 120.879C127.336 120.49 127.189 120.041 127.181 119.533H129.039C129.05 119.746 129.12 119.933 129.248 120.095C129.378 120.254 129.551 120.378 129.767 120.466C129.983 120.554 130.226 120.598 130.496 120.598C130.777 120.598 131.026 120.548 131.242 120.449C131.458 120.349 131.627 120.212 131.749 120.036C131.871 119.859 131.932 119.656 131.932 119.426C131.932 119.193 131.867 118.987 131.736 118.808C131.608 118.626 131.424 118.484 131.182 118.382C130.944 118.28 130.659 118.229 130.33 118.229H129.516V116.874H130.33C130.608 116.874 130.854 116.825 131.067 116.729C131.283 116.632 131.451 116.499 131.57 116.328C131.689 116.155 131.749 115.953 131.749 115.723C131.749 115.504 131.696 115.312 131.591 115.148C131.489 114.98 131.344 114.849 131.157 114.756C130.972 114.662 130.756 114.615 130.509 114.615C130.259 114.615 130.03 114.661 129.823 114.751C129.615 114.839 129.449 114.966 129.324 115.131C129.199 115.295 129.132 115.489 129.124 115.71H127.355C127.364 115.207 127.507 114.764 127.786 114.381C128.064 113.997 128.439 113.697 128.911 113.482C129.385 113.263 129.921 113.153 130.517 113.153C131.12 113.153 131.647 113.263 132.098 113.482C132.55 113.7 132.901 113.996 133.151 114.368C133.404 114.737 133.529 115.152 133.526 115.612C133.529 116.101 133.377 116.509 133.07 116.835C132.766 117.162 132.37 117.369 131.881 117.457V117.526C132.523 117.608 133.012 117.831 133.347 118.195C133.685 118.555 133.853 119.007 133.85 119.55C133.853 120.047 133.709 120.489 133.419 120.875C133.132 121.261 132.736 121.565 132.23 121.787C131.725 122.009 131.145 122.119 130.492 122.119ZM139.953 120.364V119.903C139.953 119.554 140.027 119.233 140.175 118.94C140.325 118.645 140.543 118.409 140.827 118.233C141.114 118.054 141.463 117.964 141.875 117.964C142.293 117.964 142.643 118.053 142.928 118.229C143.214 118.405 143.43 118.641 143.575 118.936C143.723 119.229 143.797 119.551 143.797 119.903V120.364C143.797 120.713 143.723 121.036 143.575 121.331C143.428 121.624 143.21 121.858 142.923 122.034C142.636 122.213 142.287 122.303 141.875 122.303C141.457 122.303 141.107 122.213 140.822 122.034C140.538 121.858 140.322 121.624 140.175 121.331C140.027 121.036 139.953 120.713 139.953 120.364ZM141.193 119.903V120.364C141.193 120.565 141.241 120.756 141.338 120.935C141.438 121.114 141.616 121.203 141.875 121.203C142.134 121.203 142.31 121.115 142.403 120.939C142.5 120.763 142.548 120.571 142.548 120.364V119.903C142.548 119.696 142.503 119.503 142.412 119.324C142.321 119.145 142.142 119.055 141.875 119.055C141.619 119.055 141.442 119.145 141.342 119.324C141.243 119.503 141.193 119.696 141.193 119.903ZM135.474 115.369V114.909C135.474 114.557 135.55 114.234 135.7 113.942C135.851 113.646 136.068 113.411 136.352 113.234C136.639 113.058 136.986 112.97 137.392 112.97C137.813 112.97 138.165 113.058 138.449 113.234C138.733 113.411 138.949 113.646 139.097 113.942C139.244 114.234 139.318 114.557 139.318 114.909V115.369C139.318 115.722 139.243 116.044 139.092 116.337C138.945 116.629 138.727 116.864 138.44 117.04C138.156 117.213 137.807 117.3 137.392 117.3C136.977 117.3 136.626 117.212 136.339 117.036C136.055 116.857 135.839 116.622 135.692 116.332C135.547 116.04 135.474 115.719 135.474 115.369ZM136.723 114.909V115.369C136.723 115.577 136.771 115.768 136.868 115.945C136.967 116.121 137.142 116.209 137.392 116.209C137.653 116.209 137.831 116.121 137.925 115.945C138.021 115.768 138.07 115.577 138.07 115.369V114.909C138.07 114.702 138.024 114.509 137.933 114.33C137.842 114.151 137.662 114.061 137.392 114.061C137.139 114.061 136.964 114.152 136.868 114.334C136.771 114.516 136.723 114.707 136.723 114.909ZM136.037 122L142.037 113.273H143.153L137.153 122H136.037Z" fill="white"/>
</svg>
