<svg width="32" height="32" viewBox="0 0 32 32" fill="none" xmlns="http://www.w3.org/2000/svg">
<rect width="32" height="32" rx="5" fill="#36393A"/>
<path d="M16 15.6618C14.625 15.6618 13.5 15.211 12.625 14.3092C11.75 13.4074 11.3125 12.248 11.3125 10.8309C11.3125 9.41385 11.75 8.25443 12.625 7.35266C13.5 6.45089 14.625 6 16 6C17.375 6 18.5 6.45089 19.375 7.35266C20.25 8.25443 20.6875 9.41385 20.6875 10.8309C20.6875 12.248 20.25 13.4074 19.375 14.3092C18.5 15.211 17.375 15.6618 16 15.6618ZM6 26V22.9726C6 22.1567 6.19792 21.4589 6.59375 20.8792C6.98958 20.2995 7.5 19.8594 8.125 19.5588C9.52083 18.9147 10.8594 18.4316 12.1406 18.1095C13.4219 17.7874 14.7083 17.6264 16 17.6264C17.2917 17.6264 18.5729 17.7928 19.8438 18.1256C21.1146 18.4584 22.4479 18.9361 23.8438 19.5588C24.4896 19.8594 25.0104 20.2995 25.4062 20.8792C25.8021 21.4589 26 22.1567 26 22.9726V26H6ZM7.875 24.0676H24.125V22.9726C24.125 22.6291 24.026 22.3017 23.8281 21.9903C23.6302 21.679 23.3854 21.4482 23.0938 21.2979C21.7604 20.6323 20.5417 20.1761 19.4375 19.9291C18.3333 19.6822 17.1875 19.5588 16 19.5588C14.8125 19.5588 13.6563 19.6822 12.5313 19.9291C11.4063 20.1761 10.1875 20.6323 8.875 21.2979C8.58333 21.4482 8.34375 21.679 8.15625 21.9903C7.96875 22.3017 7.875 22.6291 7.875 22.9726V24.0676ZM16 13.7295C16.8125 13.7295 17.4844 13.4557 18.0156 12.9082C18.5469 12.3607 18.8125 11.6683 18.8125 10.8309C18.8125 9.99356 18.5469 9.30113 18.0156 8.75362C17.4844 8.20612 16.8125 7.93237 16 7.93237C15.1875 7.93237 14.5156 8.20612 13.9844 8.75362C13.4531 9.30113 13.1875 9.99356 13.1875 10.8309C13.1875 11.6683 13.4531 12.3607 13.9844 12.9082C14.5156 13.4557 15.1875 13.7295 16 13.7295Z" fill="#7C8C94"/>
</svg>
