<svg width="32" height="32" viewBox="0 0 32 32" fill="none" xmlns="http://www.w3.org/2000/svg">
<rect width="32" height="32" rx="5" fill="#36393A"/>
<path d="M24.3333 26H7.66667C7.22222 26 6.83333 25.8571 6.5 25.5714C6.16667 25.2857 6 24.9524 6 24.5714V11.9524C6 11.5714 6.16667 11.2381 6.5 10.9524C6.83333 10.6667 7.22222 10.5238 7.66667 10.5238H10.7222C10.7222 9.26984 11.213 8.20238 12.1944 7.32143C13.1759 6.44048 14.3981 6 15.8611 6C17.3241 6 18.5926 6.44048 19.6667 7.32143C20.7407 8.20238 21.2778 9.26984 21.2778 10.5238H24.3333C24.7778 10.5238 25.1667 10.6667 25.5 10.9524C25.8333 11.2381 26 11.5714 26 11.9524V24.5714C26 24.9524 25.8333 25.2857 25.5 25.5714C25.1667 25.8571 24.7778 26 24.3333 26ZM12.3889 10.5238H19.6111C19.6111 9.65079 19.2639 8.91667 18.5694 8.32143C17.875 7.72619 17.0185 7.42857 16 7.42857C14.9815 7.42857 14.125 7.72619 13.4306 8.32143C12.7361 8.91667 12.3889 9.65079 12.3889 10.5238ZM24.3333 24.5714V11.9524H7.66667V24.5714H24.3333ZM16 17.6667C17.463 17.6667 18.7315 17.2063 19.8056 16.2857C20.8796 15.3651 21.4167 14.2778 21.4167 13.0238H19.75C19.75 13.8968 19.3796 14.6508 18.6389 15.2857C17.8981 15.9206 17.0185 16.2381 16 16.2381C14.9815 16.2381 14.1019 15.9206 13.3611 15.2857C12.6204 14.6508 12.25 13.8968 12.25 13.0238H10.5833C10.5833 14.2778 11.1204 15.3651 12.1944 16.2857C13.2685 17.2063 14.537 17.6667 16 17.6667ZM7.66667 11.9524V24.5714V11.9524Z" fill="#7C8C94"/>
</svg>
