<svg width="20" height="24" viewBox="0 0 20 24" fill="none" xmlns="http://www.w3.org/2000/svg">
<path d="M2.89256 24C2.08448 24 1.40037 23.695 0.84022 23.085C0.280073 22.475 0 21.73 0 20.85V17.1H3.49862V0L5.15151 1.8L6.80441 0L8.42975 1.8L10.0826 0L11.7355 1.8L13.3884 0L15.0413 1.8L16.6942 0L18.3471 1.8L20 0V20.85C20 21.73 19.7199 22.475 19.1598 23.085C18.5996 23.695 17.9155 24 17.1074 24H2.89256ZM17.1074 22.2C17.4747 22.2 17.7732 22.075 18.0028 21.825C18.2323 21.575 18.3471 21.25 18.3471 20.85V3H5.15151V17.1H15.8678V20.85C15.8678 21.25 15.9826 21.575 16.2121 21.825C16.4417 22.075 16.7401 22.2 17.1074 22.2ZM6.61157 7.74V5.94H13.2231V7.74H6.61157ZM6.61157 11.76V9.96H13.2231V11.76H6.61157ZM15.7851 7.74C15.5647 7.74 15.3719 7.65 15.2066 7.47C15.0413 7.29 14.9587 7.08 14.9587 6.84C14.9587 6.6 15.0413 6.39 15.2066 6.21C15.3719 6.03 15.5647 5.94 15.7851 5.94C16.0055 5.94 16.1983 6.03 16.3636 6.21C16.5289 6.39 16.6116 6.6 16.6116 6.84C16.6116 7.08 16.5289 7.29 16.3636 7.47C16.1983 7.65 16.0055 7.74 15.7851 7.74ZM15.7851 11.61C15.5647 11.61 15.3719 11.52 15.2066 11.34C15.0413 11.16 14.9587 10.95 14.9587 10.71C14.9587 10.47 15.0413 10.26 15.2066 10.08C15.3719 9.9 15.5647 9.81 15.7851 9.81C16.0055 9.81 16.1983 9.9 16.3636 10.08C16.5289 10.26 16.6116 10.47 16.6116 10.71C16.6116 10.95 16.5289 11.16 16.3636 11.34C16.1983 11.52 16.0055 11.61 15.7851 11.61ZM2.86501 22.2H14.2149V18.9H1.65289V20.85C1.65289 21.25 1.76768 21.575 1.99725 21.825C2.22681 22.075 2.51607 22.2 2.86501 22.2ZM1.65289 22.2C1.65289 22.2 1.65289 22.075 1.65289 21.825C1.65289 21.575 1.65289 21.25 1.65289 20.85V18.9V22.2Z" fill="#ACAEAE"/>
</svg>
