<svg width="40" height="40" viewBox="0 0 40 40" fill="none" xmlns="http://www.w3.org/2000/svg">
<rect width="40" height="40" rx="10" fill="#36393A"/>
<path d="M20.3053 17.0238V13.7986H16.5191V12.2253H20.3053V9H22.1374V12.2253H25.8931V13.7986H22.1374V17.0238H20.3053ZM14.9618 31C14.3511 31 13.8321 30.8164 13.4046 30.4493C12.9771 30.0822 12.7634 29.6365 12.7634 29.112C12.7634 28.5876 12.9771 28.1418 13.4046 27.7747C13.8321 27.4076 14.3511 27.2241 14.9618 27.2241C15.5725 27.2241 16.0916 27.4076 16.5191 27.7747C16.9466 28.1418 17.1603 28.5876 17.1603 29.112C17.1603 29.6365 16.9466 30.0822 16.5191 30.4493C16.0916 30.8164 15.5725 31 14.9618 31ZM27.2977 31C26.687 31 26.1679 30.8164 25.7405 30.4493C25.313 30.0822 25.0992 29.6365 25.0992 29.112C25.0992 28.5876 25.313 28.1418 25.7405 27.7747C26.1679 27.4076 26.687 27.2241 27.2977 27.2241C27.9084 27.2241 28.4275 27.4076 28.855 27.7747C29.2824 28.1418 29.4962 28.5876 29.4962 29.112C29.4962 29.6365 29.2824 30.0822 28.855 30.4493C28.4275 30.8164 27.9084 31 27.2977 31ZM14.9618 25.5721C14.1069 25.5721 13.4809 25.2749 13.084 24.6806C12.687 24.0862 12.6921 23.4831 13.0992 22.8713L14.9618 19.9607L10.3817 11.5959H8V10.0226H11.542L16.7328 19.5673H25.6489L30.4122 12.2253L32 12.9595L27.3282 20.2229C27.145 20.5201 26.8957 20.7473 26.5802 20.9046C26.2646 21.062 25.8931 21.1406 25.4656 21.1406H16.3053L14.4122 23.9988H29.4962V25.5721H14.9618Z" fill="#5A6063"/>
</svg>
