<svg width="22" height="22" viewBox="0 0 22 22" fill="none" xmlns="http://www.w3.org/2000/svg">
<path d="M9.87468 4.14249C10.2123 4.14249 10.503 4.0212 10.7468 3.77863C10.9906 3.53605 11.1125 3.24682 11.1125 2.91094C11.1125 2.57506 10.9906 2.28584 10.7468 2.04326C10.503 1.80068 10.2123 1.67939 9.87468 1.67939C9.53708 1.67939 9.24638 1.80068 9.00256 2.04326C8.75874 2.28584 8.63683 2.57506 8.63683 2.91094C8.63683 3.24682 8.75874 3.53605 9.00256 3.77863C9.24638 4.0212 9.53708 4.14249 9.87468 4.14249ZM8.74936 22H1.68798C1.23785 22 0.84399 21.8321 0.506394 21.4962C0.168798 21.1603 0 20.7684 0 20.3206V4.03053C0 3.5827 0.168798 3.19084 0.506394 2.85496C0.84399 2.51908 1.23785 2.35115 1.68798 2.35115H6.89258C7.00512 1.73537 7.34271 1.18957 7.90537 0.713741C8.46803 0.237914 9.12447 0 9.87468 0C10.6249 0 11.286 0.237914 11.8581 0.713741C12.4301 1.18957 12.763 1.73537 12.8568 2.35115H18.0614C18.5115 2.35115 18.9054 2.51908 19.243 2.85496C19.5806 3.19084 19.7494 3.5827 19.7494 4.03053V9.71247H18.0614V4.03053H15.0793V7.66921H4.67008V4.03053H1.68798V20.3206H8.74936V22ZM14.0665 21.3003L9.56522 16.8219L10.7749 15.6183L14.0665 18.8931L20.7903 12.2036L22 13.4071L14.0665 21.3003Z" fill="#ACAEAE"/>
</svg>
