<svg width="22" height="20" viewBox="0 0 22 20" fill="none" xmlns="http://www.w3.org/2000/svg">
<path d="M6.875 3.97368V1.57895C6.875 1.15789 7.04 0.789474 7.37 0.473684C7.7 0.157895 8.085 0 8.525 0H13.475C13.915 0 14.3 0.157895 14.63 0.473684C14.96 0.789474 15.125 1.15789 15.125 1.57895V3.97368H20.35C20.79 3.97368 21.175 4.13158 21.505 4.44737C21.835 4.76316 22 5.13158 22 5.55263V18.4211C22 18.8421 21.835 19.2105 21.505 19.5263C21.175 19.8421 20.79 20 20.35 20H1.65C1.21 20 0.825 19.8421 0.495 19.5263C0.165 19.2105 0 18.8421 0 18.4211V5.55263C0 5.13158 0.165 4.76316 0.495 4.44737C0.825 4.13158 1.21 3.97368 1.65 3.97368H6.875ZM8.525 3.97368H13.475V1.57895H8.525V3.97368ZM20.35 13.3947H13.5025V14.9737H8.5525V13.3947H1.65V18.4211H20.35V13.3947ZM10.2025 13.3947H11.8525V11.8158H10.2025V13.3947ZM1.65 11.8158H8.5525V10.2368H13.5025V11.8158H20.35V5.55263H1.65V11.8158Z" fill="#ACAEAE"/>
</svg>
