<svg width="32" height="32" viewBox="0 0 32 32" fill="none" xmlns="http://www.w3.org/2000/svg">
<rect width="32" height="32" rx="5" fill="#36393A"/>
<path d="M12.0886 25.7778C11.5914 25.7778 11.1688 25.6065 10.8208 25.2638C10.4728 24.9212 10.2988 24.5051 10.2988 24.0156C10.2988 23.5261 10.4728 23.11 10.8208 22.7673C11.1688 22.4247 11.5914 22.2534 12.0886 22.2534C12.5691 22.2534 12.9876 22.4247 13.3439 22.7673C13.7001 23.11 13.8783 23.5261 13.8783 24.0156C13.8783 24.5051 13.7043 24.9212 13.3563 25.2638C13.0083 25.6065 12.5857 25.7778 12.0886 25.7778ZM22.0315 25.7778C21.5344 25.7778 21.1118 25.6065 20.7638 25.2638C20.4158 24.9212 20.2418 24.5051 20.2418 24.0156C20.2418 23.5261 20.4158 23.11 20.7638 22.7673C21.1118 22.4247 21.5344 22.2534 22.0315 22.2534C22.5121 22.2534 22.9305 22.4247 23.2868 22.7673C23.6431 23.11 23.8212 23.5261 23.8212 24.0156C23.8212 24.5051 23.6472 24.9212 23.2992 25.2638C22.9512 25.6065 22.5287 25.7778 22.0315 25.7778ZM10.796 9.62425L13.5303 15.2046H20.6892L23.7964 9.62425H10.796ZM10.0503 8.15575H24.6912C25.2215 8.15575 25.5571 8.31484 25.698 8.63301C25.8388 8.95119 25.7933 9.30608 25.5613 9.69768L22.2055 15.6451C22.0398 15.9225 21.8078 16.1632 21.5095 16.3671C21.2112 16.5711 20.8881 16.6731 20.5401 16.6731H13.0083L11.6163 19.2185H23.8212V20.687H11.84C11.144 20.687 10.6427 20.4585 10.3361 20.0017C10.0295 19.5448 10.0337 19.0308 10.3485 18.4597L11.9394 15.5717L8.1611 7.69072H6.22223V6.22222H9.13054L10.0503 8.15575ZM13.5303 15.2046H20.6892H13.5303Z" fill="#7C8C94"/>
</svg>
