<svg width="15" height="14" viewBox="0 0 15 14" fill="none" xmlns="http://www.w3.org/2000/svg">
<path d="M13.6444 14L8.53056 8.88611C8.14167 9.22315 7.68796 9.48565 7.16944 9.67361C6.65093 9.86157 6.1 9.95555 5.51667 9.95555C4.11667 9.95555 2.93056 9.46944 1.95833 8.49722C0.986111 7.525 0.5 6.35185 0.5 4.97778C0.5 3.6037 0.986111 2.43056 1.95833 1.45833C2.93056 0.486111 4.11019 0 5.49722 0C6.8713 0 8.0412 0.486111 9.00694 1.45833C9.97269 2.43056 10.4556 3.6037 10.4556 4.97778C10.4556 5.53519 10.3648 6.07315 10.1833 6.59167C10.0019 7.11019 9.72963 7.5963 9.36667 8.05L14.5 13.1444L13.6444 14ZM5.49722 8.78889C6.54722 8.78889 7.44167 8.4162 8.18056 7.67083C8.91945 6.92546 9.28889 6.02778 9.28889 4.97778C9.28889 3.92778 8.91945 3.03009 8.18056 2.28472C7.44167 1.53935 6.54722 1.16667 5.49722 1.16667C4.43426 1.16667 3.53009 1.53935 2.78472 2.28472C2.03935 3.03009 1.66667 3.92778 1.66667 4.97778C1.66667 6.02778 2.03935 6.92546 2.78472 7.67083C3.53009 8.4162 4.43426 8.78889 5.49722 8.78889Z" fill="#7C8C94"/>
</svg>
