<svg width="28" height="29" viewBox="0 0 28 29" fill="none" xmlns="http://www.w3.org/2000/svg">
<path d="M4.97 22.582C6.44 21.5554 7.89833 20.7679 9.345 20.2195C10.7917 19.6712 12.3433 19.397 14 19.397C15.6567 19.397 17.2142 19.6712 18.6725 20.2195C20.1308 20.7679 21.595 21.5554 23.065 22.582C24.0917 21.322 24.8208 20.0504 25.2525 18.767C25.6842 17.4837 25.9 16.1304 25.9 14.707C25.9 11.3237 24.7625 8.49453 22.4875 6.21953C20.2125 3.94453 17.3833 2.80703 14 2.80703C10.6167 2.80703 7.7875 3.94453 5.5125 6.21953C3.2375 8.49453 2.1 11.3237 2.1 14.707C2.1 16.1304 2.32167 17.4837 2.765 18.767C3.20833 20.0504 3.94333 21.322 4.97 22.582ZM14 15.757C12.6467 15.757 11.5092 15.2962 10.5875 14.3745C9.66583 13.4529 9.205 12.3154 9.205 10.962C9.205 9.6087 9.66583 8.4712 10.5875 7.54953C11.5092 6.62786 12.6467 6.16703 14 6.16703C15.3533 6.16703 16.4908 6.62786 17.4125 7.54953C18.3342 8.4712 18.795 9.6087 18.795 10.962C18.795 12.3154 18.3342 13.4529 17.4125 14.3745C16.4908 15.2962 15.3533 15.757 14 15.757ZM14 28.707C12.0867 28.707 10.2783 28.3395 8.575 27.6045C6.87167 26.8695 5.38417 25.8662 4.1125 24.5945C2.84083 23.3229 1.8375 21.8354 1.1025 20.132C0.3675 18.4287 0 16.6204 0 14.707C0 12.7704 0.3675 10.9562 1.1025 9.26453C1.8375 7.57286 2.84083 6.0912 4.1125 4.81953C5.38417 3.54786 6.87167 2.54453 8.575 1.80953C10.2783 1.07453 12.0867 0.707031 14 0.707031C15.9367 0.707031 17.7508 1.07453 19.4425 1.80953C21.1342 2.54453 22.6158 3.54786 23.8875 4.81953C25.1592 6.0912 26.1625 7.57286 26.8975 9.26453C27.6325 10.9562 28 12.7704 28 14.707C28 16.6204 27.6325 18.4287 26.8975 20.132C26.1625 21.8354 25.1592 23.3229 23.8875 24.5945C22.6158 25.8662 21.1342 26.8695 19.4425 27.6045C17.7508 28.3395 15.9367 28.707 14 28.707ZM14 26.607C15.2833 26.607 16.5375 26.4204 17.7625 26.047C18.9875 25.6737 20.195 25.0204 21.385 24.087C20.195 23.247 18.9817 22.6054 17.745 22.162C16.5083 21.7187 15.26 21.497 14 21.497C12.74 21.497 11.4917 21.7187 10.255 22.162C9.01833 22.6054 7.805 23.247 6.615 24.087C7.805 25.0204 9.0125 25.6737 10.2375 26.047C11.4625 26.4204 12.7167 26.607 14 26.607ZM14 13.657C14.7933 13.657 15.4408 13.4062 15.9425 12.9045C16.4442 12.4029 16.695 11.7554 16.695 10.962C16.695 10.1687 16.4442 9.5212 15.9425 9.01953C15.4408 8.51786 14.7933 8.26703 14 8.26703C13.2067 8.26703 12.5592 8.51786 12.0575 9.01953C11.5558 9.5212 11.305 10.1687 11.305 10.962C11.305 11.7554 11.5558 12.4029 12.0575 12.9045C12.5592 13.4062 13.2067 13.657 14 13.657Z" fill="#ACAEAE"/>
</svg>
